<svg width="234" height="74" viewBox="0 0 234 74" fill="none" xmlns="http://www.w3.org/2000/svg">
<path d="M1.312 48L5.792 25.6H9.184L15.712 42.016L13.952 41.984L26.72 25.6H30.304L25.824 48H21.888L25.12 31.68L26.048 31.712L15.232 45.44H13.376L7.712 31.68L8.512 31.776L5.28 48H1.312ZM43.0745 48.32C40.8132 48.32 38.8825 47.9147 37.2825 47.104C35.6825 46.2933 34.4558 45.1733 33.6025 43.744C32.7705 42.2933 32.3545 40.6293 32.3545 38.752C32.3545 36.8533 32.6745 35.0933 33.3145 33.472C33.9545 31.8293 34.8825 30.4 36.0985 29.184C37.3145 27.968 38.7652 27.0187 40.4505 26.336C42.1358 25.632 44.0132 25.28 46.0825 25.28C48.3225 25.28 50.2425 25.6853 51.8425 26.496C53.4425 27.3067 54.6692 28.4373 55.5225 29.888C56.3758 31.3173 56.8025 32.9707 56.8025 34.848C56.8025 36.7467 56.4718 38.5173 55.8105 40.16C55.1705 41.7813 54.2425 43.2 53.0265 44.416C51.8105 45.632 50.3598 46.592 48.6745 47.296C47.0105 47.9787 45.1438 48.32 43.0745 48.32ZM43.4265 44.672C44.8345 44.672 46.1038 44.4267 47.2345 43.936C48.3652 43.424 49.3252 42.7307 50.1145 41.856C50.9252 40.96 51.5438 39.936 51.9705 38.784C52.3972 37.6107 52.6105 36.384 52.6105 35.104C52.6105 33.888 52.3438 32.8107 51.8105 31.872C51.2772 30.9333 50.4985 30.208 49.4745 29.696C48.4505 29.184 47.1918 28.928 45.6985 28.928C44.3118 28.928 43.0425 29.184 41.8905 29.696C40.7598 30.1867 39.7892 30.88 38.9785 31.776C38.1892 32.6507 37.5812 33.6747 37.1545 34.848C36.7492 36 36.5465 37.216 36.5465 38.496C36.5465 39.712 36.8025 40.7893 37.3145 41.728C37.8478 42.6667 38.6265 43.392 39.6505 43.904C40.6745 44.416 41.9332 44.672 43.4265 44.672ZM58.812 48L63.292 25.6H66.684L73.212 42.016L71.452 41.984L84.22 25.6H87.804L83.324 48H79.388L82.62 31.68L83.548 31.712L72.732 45.44H70.876L65.212 31.68L66.012 31.776L62.78 48H58.812ZM95.8065 34.912H106.975L106.303 38.336H95.1345L95.8065 34.912ZM94.2065 44.512H106.878L106.175 48H89.3745L93.8545 25.6H110.207L109.503 29.088H97.2785L94.2065 44.512Z" fill="#DBDBDB"/>
<path d="M144.856 48L148.632 29.12H141.208L141.912 25.6H160.888L160.184 29.12H152.76L149.016 48H144.856ZM169.396 48.32C167.284 48.32 165.524 47.904 164.116 47.072C162.708 46.24 161.716 45.0773 161.14 43.584C160.585 42.0693 160.51 40.288 160.916 38.24L163.444 25.6H167.604L165.076 38.176C164.884 39.264 164.83 40.224 164.916 41.056C165.022 41.8667 165.278 42.5493 165.684 43.104C166.11 43.6373 166.665 44.032 167.348 44.288C168.052 44.544 168.873 44.672 169.812 44.672C171.006 44.672 172.03 44.448 172.884 44C173.758 43.552 174.484 42.848 175.06 41.888C175.657 40.9067 176.116 39.6587 176.436 38.144L178.932 25.6H183.028L180.468 38.432C179.806 41.7173 178.548 44.192 176.692 45.856C174.836 47.4987 172.404 48.32 169.396 48.32ZM184.406 48L188.886 25.6H192.278L198.806 42.016L197.046 41.984L209.814 25.6H213.398L208.918 48H204.982L208.214 31.68L209.142 31.712L198.326 45.44H196.47L190.806 31.68L191.606 31.776L188.374 48H184.406Z" fill="#DBDBDB"/>
<path d="M119.6 24.9222L121.387 24.0236L117.646 24.4965L119.6 24.9222ZM129.556 44.7186L127.769 45.6171L131.476 45.2779L129.556 44.7186ZM142 2L143.92 2.55937C144.182 1.66175 143.786 0.702741 142.968 0.250064C142.15 -0.202613 141.128 -0.0281549 140.506 0.670161L142 2ZM133.395 8.65818C132.661 9.4832 132.734 10.7474 133.559 11.4819C134.384 12.2163 135.648 12.1429 136.383 11.3179L133.395 8.65818ZM111.954 69.4256L121.554 25.3478L117.646 24.4965L108.046 68.5744L111.954 69.4256ZM117.813 25.8207L127.769 45.6171L131.342 43.82L121.387 24.0236L117.813 25.8207ZM131.476 45.2779L143.92 2.55937L140.08 1.44063L127.635 44.1592L131.476 45.2779ZM140.506 0.670161L133.395 8.65818L136.383 11.3179L143.494 3.32984L140.506 0.670161Z" fill="#1C2791"/>
<path d="M126.6 66.502H133.26L133.026 67.654H126.348L126.6 66.502ZM125.43 73H124.116L126.636 60.4H135.276L135.042 61.552H127.716L125.43 73ZM139.647 73L142.167 60.4H143.481L140.961 73H139.647ZM149.218 73L151.738 60.4H152.818L159.172 71.398L158.758 71.326L160.936 60.4H162.25L159.73 73H158.65L152.296 62.002L152.71 62.074L150.532 73H149.218ZM165.985 73L174.265 60.4H175.579L178.819 73H177.487L174.535 61.138H175.075L167.425 73H165.985ZM168.919 69.634L169.531 68.554H176.857L177.055 69.634H168.919ZM185.043 73L187.563 60.4H188.643L194.997 71.398L194.583 71.326L196.761 60.4H198.075L195.555 73H194.475L188.121 62.002L188.535 62.074L186.357 73H185.043ZM209.748 73.108C208.5 73.108 207.438 72.892 206.562 72.46C205.686 72.016 205.014 71.404 204.546 70.624C204.09 69.832 203.862 68.914 203.862 67.87C203.862 66.838 204.036 65.866 204.384 64.954C204.744 64.042 205.254 63.238 205.914 62.542C206.586 61.834 207.39 61.282 208.326 60.886C209.274 60.49 210.342 60.292 211.53 60.292C212.538 60.292 213.432 60.448 214.212 60.76C214.992 61.072 215.592 61.528 216.012 62.128L215.076 62.956C214.68 62.464 214.182 62.098 213.582 61.858C212.982 61.606 212.262 61.48 211.422 61.48C210.474 61.48 209.61 61.648 208.83 61.984C208.062 62.308 207.408 62.764 206.868 63.352C206.328 63.94 205.908 64.618 205.608 65.386C205.32 66.142 205.176 66.952 205.176 67.816C205.176 68.62 205.35 69.334 205.698 69.958C206.058 70.57 206.586 71.05 207.282 71.398C207.978 71.746 208.83 71.92 209.838 71.92C210.666 71.92 211.416 71.794 212.088 71.542C212.76 71.29 213.348 70.918 213.852 70.426L214.626 71.308C214.074 71.896 213.372 72.346 212.52 72.658C211.668 72.958 210.744 73.108 209.748 73.108ZM223.477 66.034H230.137L229.921 67.168H223.261L223.477 66.034ZM222.451 71.848H230.029L229.795 73H220.903L223.423 60.4H232.063L231.829 61.552H224.503L222.451 71.848Z" fill="#132992"/>
</svg>
